<svg width="180" height="24" fill="none" xmlns="http://www.w3.org/2000/svg"><path d="M17.354 6.876c-2.049 0-3.924 1.046-5.058 2.703-.872-1.7-2.572-2.703-4.665-2.703-1.875 0-3.663.915-4.84 2.354l-.48-1.787c-.044-.131-.13-.218-.262-.218H.305A.298.298 0 0 0 0 7.53v14.912c0 .174.13.305.305.305h2.573c.174 0 .305-.13.305-.305v-8.197c0-2.66 1.613-4.535 3.663-4.535 1.962 0 3.009 1.439 3.009 3.924v8.808c0 .174.13.305.305.305h2.529c.174 0 .305-.13.305-.305v-8.197c0-2.66 1.57-4.535 3.663-4.535 1.918 0 3.008 1.439 3.008 3.924v8.808c0 .174.131.305.306.305h2.616c.174 0 .305-.13.305-.305v-9.593c-.043-3.488-2.267-5.973-5.538-5.973ZM38.677 7.443l-.305 1.7c-1.396-1.439-3.401-2.31-5.669-2.31-4.622 0-8.067 3.487-8.067 8.153s3.445 8.154 8.067 8.154c2.267 0 4.23-.872 5.625-2.268l.262 1.657c.043.131.13.262.305.262H40.9c.174 0 .305-.13.305-.305v-15a.298.298 0 0 0-.305-.305h-1.919c-.13 0-.261.13-.305.262ZM32.92 20.044c-2.921 0-5.102-2.18-5.102-5.102 0-2.921 2.18-5.101 5.102-5.101s5.058 2.18 5.058 5.101c0 2.965-2.136 5.102-5.058 5.102ZM52.979 7.443V9.84c0 .174-.13.305-.305.305h-1.57c-2.66 0-3.968 1.526-3.968 4.317v7.98c0 .174-.13.304-.305.304h-2.573a.298.298 0 0 1-.305-.305v-8.72a6.578 6.578 0 0 1 6.584-6.584h2.137c.174 0 .305.13.305.305Z" fill="#0A1B2B"/><path d="m43.953 13.809 2.965-4.273-1.003-2.137c-.043-.087-.174-.174-.261-.174h-1.352a.298.298 0 0 0-.305.305v6.279h-.044ZM68.022 22.486l-5.625-7.849L67.5 7.443c.087-.088 0-.218-.13-.218h-3.184c-.174 0-.392.087-.48.261l-4.796 6.846a.67.67 0 0 0 0 .698l5.232 7.5c.131.174.306.26.48.26h3.314c.087-.043.174-.174.087-.304ZM57.426 1.643h-2.572a.298.298 0 0 0-.305.306v20.493c0 .174.13.305.305.305h2.572c.175 0 .306-.13.306-.305V1.95c-.044-.175-.175-.306-.306-.306Z" fill="#0A1B2B"/><path d="M75.391 6.832c-4.534 0-7.98 3.488-7.98 8.154 0 4.622 3.446 8.154 7.98 8.154 3.401 0 6.192-1.919 7.457-5.058.043-.087-.044-.218-.131-.218h-2.79a.622.622 0 0 0-.524.261c-.829 1.265-2.267 2.006-4.012 2.006-2.529 0-4.36-1.526-4.752-4.055h12.034c.305 0 .567-.261.61-.567v-.48c.044-4.534-3.139-8.197-7.892-8.197Zm-4.665 6.628c.523-2.311 2.267-3.75 4.665-3.75 2.355 0 4.143 1.395 4.71 3.75h-9.375ZM101.903 13.373c-1.875-.305-3.445-.567-3.445-1.962 0-1.134 1.09-1.875 2.878-1.875 1.744 0 2.878.697 3.052 2.005 0 .131.131.262.305.262h2.442c.174 0 .305-.13.305-.305-.218-2.834-2.529-4.666-5.973-4.666-3.62 0-6.018 1.919-6.018 4.71 0 3.575 3.052 4.185 5.625 4.621 1.919.306 3.576.654 3.576 2.137 0 1.308-1.309 2.006-3.053 2.006-1.787 0-3.096-.785-3.314-2.268 0-.13-.13-.261-.305-.261H95.45a.298.298 0 0 0-.305.305c.218 3.052 2.66 4.97 6.323 4.97 3.793 0 6.278-1.962 6.278-4.97 0-3.75-3.183-4.273-5.842-4.71ZM94.185 20.131v2.311c0 .175-.131.305-.306.305h-2.093c-3.4 0-5.494-2.093-5.494-5.537V9.928h-2.485a.298.298 0 0 1-.305-.305V7.486c0-.174.13-.305.305-.305h2.05c.348 0 .61-.262.61-.61V3.867c0-.174.13-.305.305-.305h2.398c.175 0 .305.13.305.305v3.314h4.317c.175 0 .305.13.305.305v2.137c0 .174-.13.305-.305.305h-4.317v7.02c0 1.831 1.047 2.878 2.922 2.878h1.482c.175 0 .306.13.306.305ZM135.26 17.079a.604.604 0 0 0-.523.305c-.872 1.7-2.442 2.66-4.361 2.66-2.747 0-4.883-2.224-4.883-5.102 0-2.877 2.093-5.101 4.883-5.101 1.919 0 3.532.96 4.404 2.573a.604.604 0 0 0 .523.305h2.617c.087 0 .174-.087.131-.175-.916-3.444-3.881-5.712-7.631-5.712-4.622 0-8.154 3.488-8.154 8.11s3.532 8.154 8.154 8.154c3.75 0 6.802-2.31 7.718-5.843.043-.087-.044-.174-.131-.174h-2.747ZM147.425 6.832c-4.753 0-8.284 3.445-8.284 8.154 0 4.666 3.531 8.154 8.284 8.154s8.285-3.488 8.285-8.154c0-4.71-3.575-8.154-8.285-8.154Zm0 13.212c-2.921 0-5.058-2.137-5.058-5.102 0-2.965 2.093-5.101 5.058-5.101 2.922 0 5.058 2.136 5.058 5.101s-2.136 5.102-5.058 5.102ZM174.591 6.876c-2.05 0-3.925 1.046-5.058 2.703-.873-1.7-2.573-2.703-4.666-2.703-1.875 0-3.663.915-4.84 2.354l-.48-1.787a.327.327 0 0 0-.305-.218h-1.744a.298.298 0 0 0-.305.305v14.912c0 .174.13.305.305.305h2.572c.175 0 .306-.13.306-.305v-8.197c0-2.66 1.613-4.535 3.662-4.535 1.963 0 3.009 1.439 3.009 3.924v8.808c0 .174.131.305.305.305h2.529c.175 0 .306-.13.306-.305v-8.197c0-2.66 1.569-4.535 3.619-4.535 1.918 0 3.008 1.439 3.008 3.924v8.808c0 .174.131.305.306.305h2.572c.175 0 .306-.13.306-.305v-9.593c.087-3.488-2.137-5.973-5.407-5.973Z" fill="#0A1B2B"/><path d="M115.028 14.07a3.62 3.62 0 1 0-.001-7.239 3.62 3.62 0 0 0 .001 7.24Z" fill="#6E6FD5"/><path opacity=".63" d="M115.027 19.477c1.999 0 3.62-1.015 3.62-2.267 0-1.253-1.621-2.268-3.62-2.268-1.998 0-3.619 1.015-3.619 2.268 0 1.252 1.621 2.267 3.619 2.267Z" fill="#6E6FD5"/><path opacity=".4" d="M115.027 23.096c1.999 0 3.62-.605 3.62-1.352 0-.746-1.621-1.351-3.62-1.351-1.998 0-3.619.605-3.619 1.351 0 .747 1.621 1.352 3.619 1.352Z" fill="#6E6FD5"/></svg>