<svg width="33" height="24" fill="none" xmlns="http://www.w3.org/2000/svg"><path d="M12.625 18.444H17l-1.23-1.248a1.82 1.82 0 0 1-.52-1.277V13.11c0-2.322-1.46-4.298-3.5-5.03v-.303C11.75 6.796 10.966 6 10 6s-1.75.796-1.75 1.778v.303c-2.04.732-3.5 2.708-3.5 5.03v2.808c0 .479-.187.938-.52 1.277L3 18.444h4.375m5.25 0v.89C12.625 20.805 11.45 22 10 22s-2.625-1.194-2.625-2.667v-.889m5.25 0h-5.25" stroke="#2D2E2E" stroke-width="2" stroke-linecap="round" stroke-linejoin="round"/><rect x="16" width="17" height="12" rx="6" fill="#FF4B55"/><path d="M21.637 3.102c.3 0 .587.05.864.15.278.101.526.261.744.481.22.22.393.511.52.875.129.362.194.806.196 1.332 0 .495-.056.936-.167 1.324a2.93 2.93 0 0 1-.475.986c-.206.27-.455.477-.747.62-.292.14-.617.21-.977.21-.389 0-.731-.075-1.029-.225a1.93 1.93 0 0 1-.718-.616 1.918 1.918 0 0 1-.327-.881h1.213a.83.83 0 0 0 .298.494.9.9 0 0 0 .563.174.948.948 0 0 0 .863-.495c.197-.331.297-.785.299-1.36h-.04c-.087.17-.205.317-.352.44a1.64 1.64 0 0 1-.509.281c-.19.066-.391.1-.605.1-.343 0-.649-.081-.918-.242a1.732 1.732 0 0 1-.636-.665 1.97 1.97 0 0 1-.233-.966c-.002-.39.088-.737.27-1.042.182-.305.435-.544.761-.716.328-.174.709-.26 1.142-.259Zm.009.966a.965.965 0 0 0-.864.503 1.02 1.02 0 0 0-.125.514c0 .192.042.364.125.517.085.152.201.273.347.364a.96.96 0 0 0 .505.133.975.975 0 0 0 .71-.298 1.049 1.049 0 0 0 .29-.719 1.047 1.047 0 0 0-.13-.505.998.998 0 0 0-.353-.37.94.94 0 0 0-.505-.139Zm5.066 4.046V4.09h1.017v4.023h-1.017ZM25.21 6.61V5.594h4.023V6.61h-4.023Z" fill="#fff"/></svg>