<svg width="20" height="20" fill="none" xmlns="http://www.w3.org/2000/svg"><path d="M18.125 11.967A21.607 21.607 0 0 1 10 13.54c-2.873 0-5.616-.559-8.125-1.574m11.736-6.55V3.61c0-.997-.808-1.806-1.805-1.806H8.194c-.997 0-1.805.809-1.805 1.806v1.806M10 10.833h.009m-6.328 7.222h12.638c.998 0 1.806-.808 1.806-1.805V7.222c0-.997-.808-1.805-1.806-1.805H3.681c-.998 0-1.806.808-1.806 1.805v9.028c0 .997.808 1.805 1.806 1.805Z" stroke="#fff" stroke-width="1.5" stroke-linecap="round" stroke-linejoin="round"/></svg>