<svg aria-hidden="true" style="position: absolute; width: 0; height: 0; overflow: hidden;" version="1.1" xmlns="http://www.w3.org/2000/svg" xmlns:xlink="http://www.w3.org/1999/xlink">
<defs>
<symbol id="icon-database" viewBox="0 0 32 32">
<path  stroke-linejoin="miter" stroke-linecap="butt" stroke-miterlimit="4" stroke-width="2.6667" d="M5.333 9.333v13.333c0 2.947 4.776 5.333 10.667 5.333s10.667-2.387 10.667-5.333v-13.333M5.333 9.333c0 2.947 4.776 5.333 10.667 5.333s10.667-2.387 10.667-5.333M5.333 9.333c0-2.947 4.776-5.333 10.667-5.333s10.667 2.387 10.667 5.333M26.667 16c0 2.947-4.776 5.333-10.667 5.333s-10.667-2.387-10.667-5.333"></path>
</symbol>
<symbol id="icon-trending" viewBox="0 0 32 32">
<path  d="M17.333 8c-0.736 0-1.333 0.597-1.333 1.333s0.597 1.333 1.333 1.333v0-2.667zM28 9.333h1.333c0-0.736-0.597-1.333-1.333-1.333v0 1.333zM26.667 20c0 0.736 0.597 1.333 1.333 1.333s1.333-0.597 1.333-1.333v0h-2.667zM3.057 21.724c-0.251 0.243-0.407 0.583-0.407 0.959 0 0.736 0.597 1.333 1.333 1.333 0.376 0 0.716-0.156 0.959-0.407l0-0-1.885-1.885zM12 14.667l0.943-0.943c-0.241-0.241-0.575-0.39-0.943-0.39s-0.701 0.149-0.943 0.39v0l0.943 0.943zM17.333 20l-0.943 0.943c0.241 0.241 0.575 0.39 0.943 0.39s0.701-0.149 0.943-0.39v0l-0.943-0.943zM17.333 10.667h10.667v-2.667h-10.667v2.667zM26.667 9.333v10.667h2.667v-10.667h-2.667zM4.943 23.609l8-8-1.885-1.885-8 8 1.885 1.885zM11.057 15.609l5.333 5.333 1.885-1.885-5.333-5.333-1.885 1.885zM18.276 20.943l10.667-10.667-1.885-1.885-10.667 10.667 1.885 1.885z"></path>
</symbol>
<symbol id="icon-star" viewBox="0 0 32 32">
<path fill="none"  stroke-linejoin="miter" stroke-linecap="butt" stroke-miterlimit="4" stroke-width="2.88" d="M14.478 4.274c0.48-1.474 2.565-1.474 3.043 0l2.070 6.373c0.215 0.647 0.815 1.106 1.522 1.106h6.701c1.55 0 2.195 1.984 0.941 2.896l-5.421 3.938c-0.401 0.294-0.659 0.764-0.659 1.294 0 0.177 0.029 0.347 0.082 0.506l-0.003-0.011 2.070 6.373c0.48 1.474-1.208 2.699-2.462 1.789l-5.421-3.939c-0.26-0.191-0.587-0.306-0.941-0.306s-0.68 0.115-0.945 0.309l0.004-0.003-5.421 3.939c-1.254 0.912-2.941-0.315-2.462-1.789l2.070-6.373c0.050-0.148 0.078-0.318 0.078-0.495 0-0.53-0.258-1-0.655-1.291l-0.004-0.003-5.421-3.939c-1.254-0.912-0.61-2.894 0.941-2.894h6.701c0.706-0.001 1.305-0.458 1.517-1.093l0.003-0.011 2.074-6.376z"></path>
</symbol>
<symbol id="icon-new" viewBox="0 0 32 32">
<path  d="M20.64 16.12c0.877 0 1.588-0.711 1.588-1.588s-0.711-1.588-1.588-1.588v0c-0.877 0-1.587 0.711-1.587 1.587s0.711 1.587 1.587 1.587v0z"></path>
<path fill="none"  stroke-linejoin="miter" stroke-linecap="round" stroke-miterlimit="4" stroke-width="2.6667" d="M13.813 27.913l-6.363-6.363c-0.383-0.383-0.62-0.912-0.62-1.497s0.237-1.114 0.62-1.497l9.445-9.447c0.383-0.383 0.912-0.619 1.496-0.619 0.033 0 0.065 0.001 0.098 0.002l-0.005-0 5.813 0.253c1.068 0.047 1.927 0.879 2.018 1.931l0.001 0.008 0.512 6.145c0.053 0.62-0.172 1.232-0.613 1.672l-9.409 9.411c-0.827 0.827-2.167 0.827-2.993 0z"></path>
<path fill="none"  stroke-linejoin="miter" stroke-linecap="round" stroke-miterlimit="4" stroke-width="2.6667" d="M6.701 17.809l-0.747-0.749c-0.383-0.383-0.62-0.912-0.62-1.497s0.237-1.114 0.62-1.497l9.445-9.447c0.383-0.383 0.912-0.619 1.496-0.619 0.032 0 0.064 0.001 0.096 0.002l-0.005-0 5.815 0.253c1.068 0.048 1.927 0.879 2.018 1.931l0.001 0.008 0.149 1.793"></path>
</symbol>
<symbol id="icon-lightning-bolt" viewBox="0 0 32 32">
<path fill="none"  stroke-linejoin="round" stroke-linecap="round" stroke-miterlimit="4" stroke-width="2.6667" d="M17.333 13.333v-9.333l-12 14.667h9.333v9.333l12-14.667h-9.333z"></path>
</symbol>
<symbol id="icon-ethereum-1" viewBox="0 0 32 32">
<path  stroke-linejoin="miter" stroke-linecap="butt" stroke-miterlimit="4" stroke-width="0.4" d="M16.873 7.127c-0.193-0.28-0.512-0.461-0.873-0.461s-0.68 0.181-0.871 0.458l-0.002 0.004-5.617 8.3c-0.11 0.161-0.176 0.359-0.176 0.573s0.066 0.413 0.179 0.577l-0.002-0.003 5.617 8.3c0.416 0.613 1.331 0.613 1.747 0l5.617-8.3c0.11-0.161 0.176-0.359 0.176-0.573s-0.066-0.413-0.179-0.577l0.002 0.003-5.617-8.3zM16 22.437l-3.34-4.935 3.133 0.617c0.136 0.027 0.276 0.027 0.413 0l3.133-0.617-3.34 4.935zM16 16.053l-3.876-0.764 3.876-5.727 3.876 5.727-3.876 0.764z"></path>
<path stroke-linejoin="miter" stroke-linecap="butt" stroke-miterlimit="4" stroke-width="0.4" d="M1.133 16.048v0.008c0.747 19.687 28.989 19.68 29.733 0v-0.008c0-8.197-6.669-14.867-14.867-14.867s-14.867 6.669-14.867 14.867zM16 28.795c-7.027 0-12.747-5.716-12.747-12.743 0.644-16.893 24.853-16.888 25.493 0 0 7.027-5.72 12.744-12.747 12.744z"></path>
</symbol>
<symbol id="icon-calendar" viewBox="0 0 32 32">
<path fill="none"  stroke-linejoin="round" stroke-linecap="round" stroke-miterlimit="4" stroke-width="2.6667" d="M10.667 9.333v-5.333M21.333 9.333v-5.333M9.333 14.667h13.333M6.667 28h18.667c1.473 0 2.667-1.194 2.667-2.667v0-16c0-1.473-1.194-2.667-2.667-2.667v0h-18.667c-1.473 0-2.667 1.194-2.667 2.667v0 16c0 1.473 1.194 2.667 2.667 2.667v0z"></path>
</symbol>
<symbol id="icon-BG-Color5" viewBox="0 0 32 32">
<path fill="none"  stroke-linejoin="round" stroke-linecap="round" stroke-miterlimit="4" stroke-width="2.6667" d="M10.667 9.333v10.667c0 1.473 1.194 2.667 2.667 2.667v0h8M10.667 9.333v-2.667c0-1.473 1.194-2.667 2.667-2.667v0h6.115c0.368 0 0.701 0.149 0.943 0.391l5.885 5.885c0.241 0.241 0.391 0.575 0.391 0.943v8.781c0 1.473-1.194 2.667-2.667 2.667v0h-2.667M10.667 9.333h-2.667c-1.473 0-2.667 1.194-2.667 2.667v0 13.333c0 1.473 1.194 2.667 2.667 2.667v0h10.667c1.473 0 2.667-1.194 2.667-2.667v0-2.667"></path>
<path  d="M16 12h4c0.736 0 1.333 0.597 1.333 1.333s-0.597 1.333-1.333 1.333h-4c-0.736 0-1.333-0.597-1.333-1.333s0.597-1.333 1.333-1.333z"></path>
<path  d="M16 16h5.333c0.736 0 1.333 0.597 1.333 1.333s-0.597 1.333-1.333 1.333h-5.333c-0.736 0-1.333-0.597-1.333-1.333s0.597-1.333 1.333-1.333z"></path>
</symbol>
<symbol id="icon-Frame-966" viewBox="0 0 32 32">
<path fill="#045de9" style="fill: var(--color2, #045de9); stroke: var(--color3, #fff)" opacity="0.5" stroke="#fff" stroke-linejoin="round" stroke-linecap="round" stroke-miterlimit="4" stroke-width="0.5333" d="M23.155 8.129c0.454 0.155 0.774 0.578 0.774 1.075 0 0.128-0.021 0.251-0.060 0.365l0.002-0.008-2.239 6.717c-0.8 2.397-3.84 3.115-5.627 1.328l-1.613-1.612c-0.205-0.204-0.488-0.331-0.8-0.331-0.497 0-0.919 0.32-1.072 0.765l-0.002 0.008-2.24 6.717c-0.168 0.428-0.578 0.725-1.057 0.725-0.626 0-1.133-0.507-1.133-1.133 0-0.11 0.016-0.216 0.045-0.316l-0.002 0.008 2.24-6.717c0.797-2.397 3.84-3.115 5.627-1.328l1.611 1.612c0.205 0.205 0.488 0.332 0.801 0.332 0.497 0 0.92-0.32 1.073-0.766l0.002-0.008 2.24-6.717c0.155-0.454 0.578-0.774 1.075-0.774 0.128 0 0.251 0.021 0.365 0.060l-0.008-0.002z"></path>
</symbol>
<symbol id="icon-Frame-965" viewBox="0 0 32 32">
<path fill="#045de9" style="fill: var(--color2, #045de9)" opacity="0.07" d="M8 0h16c4.418 0 8 3.582 8 8v16c0 4.418-3.582 8-8 8h-16c-4.418 0-8-3.582-8-8v-16c0-4.418 3.582-8 8-8z"></path>
<path fill="#045de9" style="fill: var(--color2, #045de9)" d="M11.857 6.68h-0.001c0.451 0 0.816 0.365 0.816 0.816v17.009c0 0.451-0.365 0.816-0.816 0.816h0.001c-0.451 0-0.816-0.365-0.816-0.816v-17.009c0-0.451 0.365-0.816 0.816-0.816z"></path>
<path fill="#045de9" style="fill: var(--color2, #045de9)" d="M20.143 6.68h-0.001c0.451 0 0.816 0.365 0.816 0.816v17.009c0 0.451-0.365 0.816-0.816 0.816h0.001c-0.451 0-0.816-0.365-0.816-0.816v-17.009c0-0.451 0.365-0.816 0.816-0.816z"></path>
<path fill="#e6effd" style="fill: var(--color4, #e6effd); stroke: var(--color2, #045de9)" stroke="#045de9" stroke-linejoin="miter" stroke-linecap="butt" stroke-miterlimit="4" stroke-width="3.2" d="M10.601 9.787h2.512c0.736 0 1.333 0.597 1.333 1.333v9.761c0 0.736-0.597 1.333-1.333 1.333h-2.512c-0.736 0-1.333-0.597-1.333-1.333v-9.761c0-0.736 0.597-1.333 1.333-1.333z"></path>
<path fill="#e6effd" style="fill: var(--color4, #e6effd); stroke: var(--color2, #045de9)" stroke="#045de9" stroke-linejoin="miter" stroke-linecap="butt" stroke-miterlimit="4" stroke-width="3.2" d="M18.887 11.857h2.512c0.736 0 1.333 0.597 1.333 1.333v5.619c0 0.736-0.597 1.333-1.333 1.333h-2.512c-0.736 0-1.333-0.597-1.333-1.333v-5.619c0-0.736 0.597-1.333 1.333-1.333z"></path>
</symbol>
<symbol id="icon-bull-market-1" viewBox="0 0 32 32">
<path fill="#045de9" style="fill: var(--color2, #045de9)" d="M32 5.272l-0.001-3.804-1.769 3.372c-0.017 0.033-1.738 3.246-4.856 3.246-3.608 0-3.678-0.938-5.625-0.938-1.030 0-1.762 0.312-2.35 0.563-0.492 0.21-0.88 0.375-1.4 0.375s-0.908-0.166-1.4-0.375c-0.588-0.25-1.32-0.563-2.35-0.563-1.926 0-2.044 0.938-5.625 0.938-3.118 0-4.839-3.213-4.855-3.243l-1.769-3.428v3.857c0 4.992 2.505 7.53 4.788 8.805-1.675 0.701-2.913 2.353-2.913 4.32v0.938h4.75c0.001 0 0.002 0 0.003 0 0.545 0 1.069-0.093 1.555-0.264l-0.033 0.010c0.030 0.548 0.121 1.096 0.278 1.633 0.473 1.623 1.489 2.975 2.884 3.852v3.206c0.002 1.553 1.26 2.811 2.813 2.813h3.75c1.553-0.002 2.811-1.26 2.813-2.813v-3.206c1.394-0.874 2.41-2.227 2.884-3.852 0.146-0.481 0.246-1.039 0.277-1.615l0.001-0.018c0.485 0.166 0.999 0.254 1.525 0.254h4.688v-0.938c-0.003-1.927-1.166-3.582-2.829-4.303l-0.030-0.012c2.286-1.276 4.796-3.814 4.796-8.811zM2.322 8.362c1.056 0.861 2.489 1.598 4.303 1.598 1.56 0 2.57-0.153 3.313-0.346 0.282 0.573 0.448 1.247 0.448 1.959 0 0.77-0.193 1.496-0.533 2.13l0.012-0.024c-0.778-0.070-2.327-0.303-3.845-1.070-1.85-0.935-3.086-2.357-3.697-4.247zM3.921 17.46c0.429-1.099 1.476-1.866 2.703-1.876h2.235c-0.176 0.353-0.335 0.769-0.456 1.201l-0.012 0.051c-0.476 0.389-1.091 0.624-1.76 0.624-0.002 0-0.004 0-0.006 0h-2.704zM17.875 28.71h-3.75c-0.518-0.001-0.937-0.42-0.938-0.938v-3.171c0.829-0.365 1.796-0.578 2.813-0.579h0c1.017 0.001 1.984 0.214 2.859 0.596l-0.046-0.018v3.172c0 0.517-0.421 0.938-0.938 0.938zM19.725 22.955c-1.094-0.51-2.375-0.807-3.725-0.807s-2.631 0.297-3.781 0.83l0.056-0.023c-2.115-1.359-2.883-4.245-1.698-6.616 0.822-1.715 1.68-2.65 1.68-4.767 0-0.87-0.176-1.72-0.511-2.509 0.153-0.026 0.314-0.040 0.504-0.040 0.646 0 1.096 0.19 1.616 0.412 0.577 0.246 1.231 0.525 2.134 0.525s1.557-0.279 2.134-0.525c0.52-0.221 0.97-0.413 1.616-0.413 0.19 0 0.35 0.015 0.504 0.041-0.322 0.738-0.51 1.599-0.51 2.503 0 0.003 0 0.005 0 0.008v-0c0 2.116 0.857 3.051 1.679 4.766 1.186 2.372 0.416 5.26-1.698 6.616zM28.027 17.46h-2.652c-0.649 0-1.267-0.22-1.766-0.624-0.133-0.483-0.292-0.898-0.487-1.293l0.019 0.042h2.234c1.222 0 2.265 0.783 2.652 1.875zM25.981 12.609c-1.519 0.767-3.068 1-3.845 1.070-0.328-0.61-0.522-1.335-0.522-2.106 0-0.713 0.165-1.387 0.459-1.986l-0.012 0.027c0.742 0.193 1.753 0.346 3.313 0.346 1.814 0 3.247-0.737 4.303-1.598-0.612 1.89-1.848 3.312-3.697 4.247z"></path>
<path fill="#045de9" style="fill: var(--color2, #045de9)" d="M11.584 17.185l1.326-1.326 1.874 1.875-1.325 1.326-1.875-1.875zM17.208 17.734l1.875-1.874 1.326 1.325-1.875 1.875-1.326-1.326z"></path>
</symbol>
<symbol id="icon-bear-market-1" viewBox="0 0 32 32">
<path fill="#ff4b55" style="fill: var(--color5, #ff4b55)" d="M8.074 13.090l0.838-1.677 3.748 1.874-0.838 1.677-3.748-1.874zM19.319 13.285l3.748-1.874 0.838 1.676-3.748 1.874-0.838-1.676zM19.475 23.775c-0.105-0.106-0.946-0.901-2.538-1.143v-1.943h0.938v-1.875h-3.75v1.875h0.939v1.945c-1.591 0.241-2.434 1.037-2.539 1.141l1.326 1.327-0.011 0.011c0.029-0.028 0.736-0.674 2.16-0.674s2.131 0.646 2.16 0.673l-0.011-0.011 1.326-1.325z"></path>
<path fill="#ff4b55" style="fill: var(--color5, #ff4b55)" d="M26.313 1.937c-0.002 0-0.005 0-0.007 0-2.182 0-4.073 1.245-5.001 3.064l-0.015 0.032c-0.581-0.19-1.109-0.283-1.539-0.283-1.029 0-1.762 0.313-2.351 0.563-0.491 0.209-0.88 0.374-1.399 0.374s-0.908-0.165-1.399-0.374c-0.589-0.251-1.322-0.563-2.351-0.563-0.43 0-0.958 0.093-1.539 0.283-0.943-1.85-2.834-3.095-5.016-3.095-0.002 0-0.005 0-0.007 0h0c-3.12 0-5.687 2.528-5.687 5.626 0 2.34 1.494 4.443 3.715 5.269-0.509 1.627-0.841 3.6-0.841 5.981 0 7.274 5.911 11.25 13.125 11.25 7.215 0 13.125-3.978 13.125-11.25 0-2.381-0.332-4.354-0.841-5.981 2.22-0.826 3.715-2.928 3.715-5.269 0-3.095-2.564-5.626-5.687-5.626zM1.875 7.563c0-2.068 1.71-3.75 3.812-3.75 1.401 0 2.675 0.794 3.315 1.998-2.096 1.222-3.623 3.089-4.619 5.27-1.47-0.538-2.509-1.945-2.509-3.518zM11.313 23.5v-1.875c0.004-2.587 2.1-4.682 4.687-4.686h0c2.588 0.003 4.684 2.099 4.688 4.687v1.876c-0.004 2.587-2.101 4.684-4.688 4.687h-0c-2.588-0.003-4.685-2.1-4.688-4.688v-0zM21.397 27.228c0.729-1.038 1.165-2.329 1.165-3.721 0-0.003 0-0.005 0-0.008v0-1.875c-0.005-3.622-2.94-6.557-6.562-6.562h-0c-3.622 0.005-6.557 2.94-6.562 6.562v1.876c0 1.383 0.431 2.669 1.165 3.728-3.253-1.266-5.853-3.883-5.853-8.416 0-10.068 6.267-12.187 7.5-12.187 0.647 0 1.097 0.192 1.616 0.413 0.577 0.245 1.232 0.525 2.134 0.525s1.557-0.278 2.133-0.525c0.521-0.222 0.971-0.413 1.617-0.413 1.233 0 7.499 2.118 7.499 12.188 0 4.532-2.599 7.149-5.852 8.416zM27.616 11.081c-0.996-2.181-2.523-4.048-4.619-5.27 0.646-1.194 1.887-1.992 3.314-1.998h0.001c2.101 0 3.812 1.682 3.812 3.75 0 1.573-1.039 2.98-2.508 3.518z"></path>
</symbol>
<symbol id="icon-notification" viewBox="0 0 44 32">
<path fill="none" stroke="#2d2e2e" style="stroke: var(--color6, #2d2e2e)" stroke-linejoin="round" stroke-linecap="round" stroke-miterlimit="4" stroke-width="2.6667" d="M16.833 24.592h5.833l-1.64-1.664c-0.429-0.437-0.693-1.037-0.693-1.698 0-0.002 0-0.003 0-0.005v0-3.745c0-3.096-1.947-5.731-4.667-6.707v-0.404c0-1.308-1.045-2.369-2.333-2.369s-2.333 1.061-2.333 2.371v0.404c-2.72 0.976-4.667 3.611-4.667 6.707v3.744c0 0.639-0.249 1.251-0.693 1.703l-1.64 1.664h5.833M16.833 24.592v1.187c0 1.961-1.567 3.555-3.5 3.555s-3.5-1.592-3.5-3.556v-1.185M16.833 24.592h-7"></path>
<path fill="#ff4b55" style="fill: var(--color5, #ff4b55)" d="M29.333 0h6.667c4.418 0 8 3.582 8 8s-3.582 8-8 8h-6.667c-4.418 0-8-3.582-8-8s3.582-8 8-8z"></path>
<path fill="#fff" style="fill: var(--color3, #fff)" d="M28.849 4.136c0.4 0 0.783 0.067 1.152 0.2 0.371 0.135 0.701 0.348 0.992 0.641 0.293 0.293 0.524 0.681 0.693 1.167 0.172 0.483 0.259 1.075 0.261 1.776 0 0.66-0.075 1.248-0.223 1.765-0.137 0.502-0.354 0.941-0.641 1.325l0.007-0.010c-0.275 0.36-0.607 0.636-0.996 0.827-0.389 0.187-0.823 0.28-1.303 0.28-0.519 0-0.975-0.1-1.372-0.3-0.389-0.196-0.711-0.474-0.952-0.813l-0.005-0.008c-0.231-0.331-0.387-0.731-0.435-1.163l-0.001-0.012h1.617c0.052 0.268 0.195 0.497 0.395 0.657l0.002 0.002c0.196 0.145 0.443 0.233 0.71 0.233 0.014 0 0.028-0 0.043-0.001l-0.002 0c0.012 0 0.026 0.001 0.040 0.001 0.477 0 0.892-0.264 1.107-0.654l0.003-0.007c0.263-0.441 0.396-1.047 0.399-1.813h-0.053c-0.116 0.227-0.273 0.423-0.469 0.587-0.193 0.158-0.418 0.285-0.663 0.37l-0.015 0.005c-0.253 0.088-0.521 0.133-0.807 0.133-0.457 0-0.865-0.108-1.224-0.323-0.358-0.217-0.646-0.517-0.842-0.875l-0.006-0.012c-0.196-0.359-0.311-0.786-0.311-1.24 0-0.017 0-0.034 0-0.051l-0 0.003c-0.003-0.52 0.117-0.983 0.36-1.389s0.58-0.725 1.015-0.955c0.437-0.232 0.945-0.347 1.523-0.345zM28.861 5.424c-0.007-0-0.014-0-0.022-0-0.485 0-0.907 0.268-1.126 0.664l-0.003 0.007c-0.105 0.189-0.167 0.414-0.167 0.653 0 0.011 0 0.023 0 0.034l-0-0.002c0 0.256 0.056 0.485 0.167 0.689 0.113 0.203 0.268 0.364 0.463 0.485 0.186 0.112 0.41 0.178 0.65 0.178 0.008 0 0.016-0 0.024-0l-0.001 0c0.003 0 0.007 0 0.011 0 0.367 0 0.699-0.152 0.935-0.397l0-0c0.238-0.249 0.385-0.586 0.387-0.958v-0c-0-0.247-0.064-0.479-0.177-0.68l0.004 0.007c-0.114-0.204-0.273-0.371-0.465-0.49l-0.006-0.003c-0.187-0.116-0.413-0.185-0.656-0.185-0.006 0-0.012 0-0.018 0h0.001zM35.616 10.819v-5.365h1.356v5.364h-1.356zM33.613 8.813v-1.355h5.364v1.355h-5.364z"></path>
</symbol>
<symbol id="icon-Logo" viewBox="0 0 240 32">
<path fill="#0a1b2b" style="fill: var(--color7, #0a1b2b)" d="M23.139 9.168c-2.732 0-5.232 1.395-6.744 3.604-1.163-2.267-3.429-3.604-6.22-3.604-2.5 0-4.884 1.22-6.453 3.139l-0.64-2.383c-0.059-0.175-0.173-0.291-0.349-0.291h-2.325c-0.003-0-0.006-0-0.009-0-0.219 0-0.397 0.178-0.397 0.397 0 0.003 0 0.007 0 0.010v-0.001 19.883c0 0.232 0.173 0.407 0.407 0.407h3.431c0.232 0 0.407-0.173 0.407-0.407v-10.929c0-3.547 2.151-6.047 4.884-6.047 2.616 0 4.012 1.919 4.012 5.232v11.744c0 0.232 0.173 0.407 0.407 0.407h3.372c0.232 0 0.407-0.173 0.407-0.407v-10.929c0-3.547 2.093-6.047 4.884-6.047 2.557 0 4.011 1.919 4.011 5.232v11.744c0 0.232 0.175 0.407 0.408 0.407h3.488c0.232 0 0.407-0.173 0.407-0.407v-12.791c-0.057-4.651-3.023-7.964-7.384-7.964zM51.569 9.924l-0.407 2.267c-1.861-1.919-4.535-3.080-7.559-3.080-6.163 0-10.756 4.649-10.756 10.871s4.593 10.872 10.756 10.872c3.023 0 5.64-1.163 7.5-3.024l0.349 2.209c0.057 0.175 0.173 0.349 0.407 0.349h2.673c0.232 0 0.407-0.173 0.407-0.407v-20c0-0.003 0-0.006 0-0.009 0-0.219-0.178-0.397-0.397-0.397-0.003 0-0.007 0-0.010 0h-2.558c-0.173 0-0.348 0.173-0.407 0.349zM43.893 26.725c-3.895 0-6.803-2.907-6.803-6.803 0-3.895 2.907-6.801 6.803-6.801s6.744 2.907 6.744 6.801c0 3.953-2.848 6.803-6.744 6.803zM70.639 9.924v3.196c0 0.232-0.173 0.407-0.407 0.407h-2.093c-3.547 0-5.291 2.035-5.291 5.756v10.64c0 0.232-0.173 0.405-0.407 0.405h-3.431c-0.003 0-0.006 0-0.009 0-0.219 0-0.397-0.178-0.397-0.397 0-0.003 0-0.007 0-0.010v0-11.627c0-0.002 0-0.005 0-0.008 0-4.844 3.927-8.771 8.771-8.771 0.003 0 0.006 0 0.008 0h2.849c0.232 0 0.407 0.173 0.407 0.407z"></path>
<path fill="#0a1b2b" style="fill: var(--color7, #0a1b2b)" d="M58.604 18.412l3.953-5.697-1.337-2.849c-0.057-0.116-0.232-0.232-0.348-0.232h-1.803c-0.003-0-0.006-0-0.009-0-0.219 0-0.397 0.178-0.397 0.397 0 0.003 0 0.007 0 0.010v-0.001 8.372h-0.059zM90.696 29.981l-7.5-10.465 6.804-9.592c0.116-0.117 0-0.291-0.173-0.291h-4.245c-0.232 0-0.523 0.116-0.64 0.348l-6.395 9.128c-0.082 0.133-0.131 0.293-0.131 0.465s0.049 0.333 0.133 0.469l-0.002-0.004 6.976 10c0.175 0.232 0.408 0.347 0.64 0.347h4.419c0.116-0.057 0.232-0.232 0.116-0.405zM76.568 2.191h-3.429c-0.003-0-0.006-0-0.009-0-0.219 0-0.397 0.178-0.397 0.397 0 0.004 0 0.008 0 0.011v-0.001 27.324c0 0.232 0.173 0.407 0.407 0.407h3.429c0.233 0 0.408-0.173 0.408-0.407v-27.323c-0.059-0.233-0.233-0.408-0.408-0.408z"></path>
<path fill="#0a1b2b" style="fill: var(--color7, #0a1b2b)" d="M100.521 9.109c-6.045 0-10.64 4.651-10.64 10.872 0 6.163 4.595 10.872 10.64 10.872 4.535 0 8.256-2.559 9.943-6.744 0.057-0.116-0.059-0.291-0.175-0.291h-3.72c-0.007-0-0.015-0-0.023-0-0.278 0-0.523 0.136-0.674 0.346l-0.002 0.002c-1.105 1.687-3.023 2.675-5.349 2.675-3.372 0-5.813-2.035-6.336-5.407h16.045c0.407 0 0.756-0.348 0.813-0.756v-0.64c0.059-6.045-4.185-10.929-10.523-10.929zM94.301 17.947c0.697-3.081 3.023-5 6.22-5 3.14 0 5.524 1.86 6.28 5h-12.5zM135.871 17.831c-2.5-0.407-4.593-0.756-4.593-2.616 0-1.512 1.453-2.5 3.837-2.5 2.325 0 3.837 0.929 4.069 2.673 0 0.175 0.175 0.349 0.407 0.349h3.256c0.232 0 0.407-0.173 0.407-0.407-0.291-3.779-3.372-6.221-7.964-6.221-4.827 0-8.024 2.559-8.024 6.28 0 4.767 4.069 5.58 7.5 6.161 2.559 0.408 4.768 0.872 4.768 2.849 0 1.744-1.745 2.675-4.071 2.675-2.383 0-4.128-1.047-4.419-3.024 0-0.173-0.173-0.348-0.407-0.348h-3.371c-0.003-0-0.006-0-0.009-0-0.219 0-0.397 0.178-0.397 0.397 0 0.003 0 0.007 0 0.010v-0c0.291 4.069 3.547 6.627 8.431 6.627 5.057 0 8.371-2.616 8.371-6.627 0-5-4.244-5.697-7.789-6.28zM125.58 26.841v3.081c0 0.233-0.175 0.407-0.408 0.407h-2.791c-4.533 0-7.325-2.791-7.325-7.383v-9.709h-3.313c-0.003 0-0.006 0-0.009 0-0.219 0-0.397-0.178-0.397-0.397 0-0.003 0-0.007 0-0.010v0.001-2.849c0-0.232 0.173-0.407 0.407-0.407h2.733c0.464 0 0.813-0.349 0.813-0.813v-3.605c0-0.232 0.173-0.407 0.407-0.407h3.197c0.233 0 0.407 0.173 0.407 0.407v4.419h5.756c0.233 0 0.407 0.173 0.407 0.407v2.849c0 0.232-0.173 0.407-0.407 0.407h-5.756v9.36c0 2.441 1.396 3.837 3.896 3.837h1.976c0.233 0 0.408 0.173 0.408 0.407zM180.347 22.772c-0.297 0.001-0.556 0.163-0.695 0.403l-0.002 0.004c-1.163 2.267-3.256 3.547-5.815 3.547-3.663 0-6.511-2.965-6.511-6.803 0-3.836 2.791-6.801 6.511-6.801 2.559 0 4.709 1.28 5.872 3.431 0.141 0.244 0.4 0.406 0.697 0.407h3.489c0.116 0 0.232-0.116 0.175-0.233-1.221-4.592-5.175-7.616-10.175-7.616-6.163 0-10.872 4.651-10.872 10.813s4.709 10.872 10.872 10.872c5 0 9.069-3.080 10.291-7.791 0.057-0.116-0.059-0.232-0.175-0.232h-3.663zM196.567 9.109c-6.337 0-11.045 4.593-11.045 10.872 0 6.221 4.708 10.872 11.045 10.872s11.047-4.651 11.047-10.872c0-6.28-4.767-10.872-11.047-10.872zM196.567 26.725c-3.895 0-6.744-2.849-6.744-6.803s2.791-6.801 6.744-6.801c3.896 0 6.744 2.848 6.744 6.801s-2.848 6.803-6.744 6.803zM232.788 9.168c-2.733 0-5.233 1.395-6.744 3.604-1.164-2.267-3.431-3.604-6.221-3.604-2.5 0-4.884 1.22-6.453 3.139l-0.64-2.383c-0.061-0.169-0.22-0.289-0.406-0.291h-2.326c-0.003-0-0.006-0-0.009-0-0.219 0-0.397 0.178-0.397 0.397 0 0.003 0 0.007 0 0.010v-0.001 19.883c0 0.232 0.173 0.407 0.407 0.407h3.429c0.233 0 0.408-0.173 0.408-0.407v-10.929c0-3.547 2.151-6.047 4.883-6.047 2.617 0 4.012 1.919 4.012 5.232v11.744c0 0.232 0.175 0.407 0.407 0.407h3.372c0.233 0 0.408-0.173 0.408-0.407v-10.929c0-3.547 2.092-6.047 4.825-6.047 2.557 0 4.011 1.919 4.011 5.232v11.744c0 0.232 0.175 0.407 0.408 0.407h3.429c0.233 0 0.408-0.173 0.408-0.407v-12.791c0.116-4.651-2.849-7.964-7.209-7.964z"></path>
<path fill="#6e6fd5" style="fill: var(--color8, #6e6fd5)" d="M153.371 18.76c0.024 0 0.052 0.001 0.080 0.001 2.666 0 4.827-2.161 4.827-4.827s-2.161-4.827-4.827-4.827c-0.028 0-0.057 0-0.085 0.001l0.004-0c-2.665 0-4.826 2.161-4.826 4.827s2.161 4.827 4.827 4.827c0 0 0 0 0.001 0h-0z"></path>
<path fill="#6e6fd5" style="fill: var(--color8, #6e6fd5)" opacity="0.63" d="M153.369 25.969c2.665 0 4.827-1.353 4.827-3.023 0-1.671-2.161-3.024-4.827-3.024-2.664 0-4.825 1.353-4.825 3.024 0 1.669 2.161 3.023 4.825 3.023z"></path>
<path fill="#6e6fd5" style="fill: var(--color8, #6e6fd5)" opacity="0.4" d="M153.369 30.795c2.665 0 4.827-0.807 4.827-1.803 0-0.995-2.161-1.801-4.827-1.801-2.664 0-4.825 0.807-4.825 1.801 0 0.996 2.161 1.803 4.825 1.803z"></path>
</symbol>
<symbol id="icon-star-instument" viewBox="0 0 32 32">
<path stroke-linejoin="miter" stroke-linecap="butt" stroke-miterlimit="4" stroke-width="2.1333" d="M14.732 3.903c0.4-1.229 2.137-1.229 2.536 0l2.025 6.231c0.179 0.538 0.678 0.92 1.267 0.92h6.553c1.293 0 1.829 1.653 0.784 2.413l-5.301 3.851c-0.335 0.245-0.549 0.637-0.549 1.078 0 0.147 0.024 0.289 0.068 0.422l-0.003-0.009 2.025 6.233c0.399 1.227-1.008 2.249-2.053 1.489l-5.3-3.851c-0.217-0.159-0.489-0.255-0.784-0.255s-0.567 0.096-0.788 0.257l0.004-0.003-5.301 3.853c-1.044 0.759-2.451-0.263-2.052-1.491l2.025-6.233c0.041-0.123 0.065-0.264 0.065-0.411 0-0.442-0.215-0.833-0.545-1.076l-0.004-0.003-5.301-3.853c-1.045-0.759-0.508-2.411 0.784-2.411h6.552c0.589-0 1.089-0.383 1.265-0.913l0.003-0.009 2.025-6.232z"></path>
</symbol>
<symbol id="icon-alert" viewBox="0 0 33 32">
<path fill="none" stroke="#454545" style="stroke: var(--color9, #454545)" stroke-linejoin="round" stroke-linecap="round" stroke-miterlimit="4" stroke-width="2.1333" d="M17 23.111h7l-1.967-1.997c-0.515-0.525-0.833-1.245-0.833-2.040 0-0.001 0-0.003 0-0.004v0-4.492c0-3.715-2.337-6.876-5.6-8.047v-0.487c0-1.571-1.253-2.844-2.8-2.844s-2.8 1.273-2.8 2.844v0.487c-3.263 1.171-5.6 4.332-5.6 8.047v4.493c0 0.765-0.3 1.5-0.833 2.043l-1.967 1.997h7M17 23.111v1.423c0 2.356-1.88 4.267-4.2 4.267s-4.2-1.911-4.2-4.267v-1.423M17 23.111h-8.4"></path>
<path fill="#fff" style="fill: var(--color3, #fff)" d="M28.971 24.057c-1.251 1.292-3.001 2.094-4.938 2.094-3.794 0-6.869-3.075-6.869-6.869 0-1.938 0.802-3.688 2.092-4.936l0.002-0.002c1.234-1.195 2.919-1.931 4.775-1.931 3.794 0 6.869 3.075 6.869 6.869 0 1.856-0.736 3.541-1.933 4.777l0.002-0.002z"></path>
<path fill="none" stroke="#454545" style="stroke: var(--color9, #454545)" stroke-linejoin="round" stroke-linecap="round" stroke-miterlimit="4" stroke-width="2.1333" d="M21.2 19.2h2.915M24.115 19.2h2.913M24.115 19.2v-2.915M24.115 19.2v2.915M28.971 24.057c-1.251 1.292-3.001 2.094-4.938 2.094-3.794 0-6.869-3.075-6.869-6.869 0-1.938 0.802-3.688 2.092-4.936l0.002-0.002c1.234-1.195 2.919-1.931 4.775-1.931 3.794 0 6.869 3.075 6.869 6.869 0 1.856-0.736 3.541-1.933 4.777l0.002-0.002z"></path>
<path fill="#454545" style="fill: var(--color9, #454545)" d="M0.645 5.923c-0.071 0.139-0.113 0.303-0.113 0.477 0 0.589 0.478 1.067 1.067 1.067 0.415 0 0.775-0.237 0.951-0.583l0.003-0.006-1.907-0.955zM5.277 4.155c0.353-0.179 0.59-0.539 0.59-0.955 0-0.589-0.478-1.067-1.067-1.067-0.174 0-0.338 0.042-0.483 0.115l0.006-0.003 0.955 1.909zM2.553 6.877c0.368-0.736 0.707-1.229 1.101-1.623 0.393-0.393 0.887-0.733 1.623-1.1l-0.955-1.909c-0.864 0.433-1.571 0.893-2.177 1.5s-1.067 1.313-1.5 2.177l1.908 0.955zM24.953 5.923c0.081 0.147 0.128 0.321 0.128 0.507 0 0.589-0.478 1.067-1.067 1.067-0.427 0-0.795-0.25-0.965-0.612l-0.003-0.006 1.907-0.955zM20.323 4.155c-0.353-0.179-0.59-0.539-0.59-0.955 0-0.589 0.478-1.067 1.067-1.067 0.174 0 0.338 0.042 0.483 0.115l-0.006-0.003-0.955 1.909zM23.047 6.877c-0.368-0.736-0.707-1.229-1.101-1.623-0.393-0.393-0.887-0.733-1.623-1.1l0.955-1.909c0.864 0.433 1.571 0.893 2.177 1.5s1.067 1.313 1.499 2.177l-1.907 0.955z"></path>
</symbol>
<symbol id="icon-Group-158" viewBox="0 0 82 32">
<path fill="#000" style="fill: var(--color10, #000)" opacity="0.3" d="M2.56 23.223h-2.56v8.777h81.92v-30.72h-5.12l-2.56 6.583h-2.56l-2.56 6.583h-7.68l-2.56-8.777-2.56 8.777s-1.706 5.486-2.56 5.486l-2.56-1.098-2.56 1.097-2.56-5.485h-2.56l-2.56-8.777h-5.12l-2.56 8.777h-2.56l-2.56-5.486h-2.56l-2.56 5.486-2.56 8.777h-5.12l-2.56-8.777h-7.68l-2.56 8.777z"></path>
<path fill="#045de9" style="fill: var(--color2, #045de9)" d="M76.109 0.457h5.811v1.646h-4.429l-2.56 6.583h-2.56l-2.56 6.583h-9.121l-1.81-6.208-1.632 5.596v0.003l-0.006 0.015-0.014 0.047-0.058 0.178c-0.385 1.21-0.691 2.054-1.018 2.888l0.118-0.341c-0.269 0.695-0.576 1.417-0.881 1.975-0.152 0.289-0.318 0.538-0.506 0.768l0.006-0.008c-0.092 0.106-0.212 0.229-0.366 0.333-0.146 0.099-0.41 0.238-0.764 0.238h-0.227l-2.333-0.998-3.064 1.312-2.706-5.798h-2.66l-2.56-8.778h-3.62l-2.56 8.778h-3.96l-2.56-5.486h-1.26l-2.295 4.916-2.726 9.347h-6.618l-2.56-8.777h-6.182l-2.56 8.777h-3.309v-1.646h1.81l2.56-8.777h9.18l2.56 8.777h3.62l2.394-8.207 2.826-6.054h3.86l2.56 5.485h1.16l2.56-8.777h6.62l2.56 8.777h2.46l2.414 5.172 2.056-0.881 2.341 1.002c0.033-0.056 0.070-0.12 0.109-0.191 0.256-0.471 0.536-1.12 0.799-1.798 0.236-0.562 0.551-1.437 0.838-2.324l0.088-0.313 0.013-0.044 0.005-0.010 2.556-8.768h1.864l2.378 8.154h6.237l2.56-6.583h2.56l2.56-6.583z"></path>
</symbol>
<symbol id="icon-Group-158-red" viewBox="0 0 82 32">
<path fill="#000" style="fill: var(--color10, #000)" opacity="0.3" d="M2.56 23.223h-2.56v8.777h81.92v-30.72h-5.12l-2.56 6.583h-2.56l-2.56 6.583h-7.68l-2.56-8.777-2.56 8.777s-1.706 5.486-2.56 5.486l-2.56-1.098-2.56 1.097-2.56-5.485h-2.56l-2.56-8.777h-5.12l-2.56 8.777h-2.56l-2.56-5.486h-2.56l-2.56 5.486-2.56 8.777h-5.12l-2.56-8.777h-7.68l-2.56 8.777z"></path>
<path fill="#ff4b55" style="fill: var(--color5, #ff4b55)" d="M76.109 0.457h5.811v1.646h-4.429l-2.56 6.583h-2.56l-2.56 6.583h-9.121l-1.81-6.208-1.632 5.596v0.003l-0.006 0.015-0.014 0.047-0.058 0.178c-0.385 1.21-0.691 2.054-1.018 2.888l0.118-0.341c-0.269 0.695-0.576 1.417-0.881 1.975-0.152 0.289-0.318 0.538-0.506 0.768l0.006-0.008c-0.092 0.106-0.212 0.229-0.366 0.333-0.146 0.099-0.41 0.238-0.764 0.238h-0.227l-2.333-0.998-3.064 1.312-2.706-5.798h-2.66l-2.56-8.778h-3.62l-2.56 8.778h-3.96l-2.56-5.486h-1.26l-2.295 4.916-2.726 9.347h-6.618l-2.56-8.777h-6.182l-2.56 8.777h-3.309v-1.646h1.81l2.56-8.777h9.18l2.56 8.777h3.62l2.394-8.207 2.826-6.054h3.86l2.56 5.485h1.16l2.56-8.777h6.62l2.56 8.777h2.46l2.414 5.172 2.056-0.881 2.341 1.002c0.033-0.056 0.070-0.12 0.109-0.191 0.256-0.471 0.536-1.12 0.799-1.798 0.236-0.562 0.551-1.437 0.838-2.324l0.088-0.313 0.013-0.044 0.005-0.010 2.556-8.768h1.864l2.378 8.154h6.237l2.56-6.583h2.56l2.56-6.583z"></path>
</symbol>
<symbol id="icon-trending1" viewBox="0 0 32 32">
<path  d="M16.112 4c0 0.736 0.597 1.333 1.333 1.333h8.336l-8.336 8.336-4.837-4.832c-0.241-0.241-0.574-0.39-0.942-0.39s-0.701 0.149-0.942 0.39l-8.667 8.667c-0.246 0.242-0.398 0.578-0.398 0.95 0 0.736 0.597 1.333 1.333 1.333 0.372 0 0.708-0.152 0.95-0.398l7.727-7.725 4.835 4.835c0.241 0.241 0.574 0.39 0.942 0.39s0.701-0.149 0.942-0.39l9.28-9.28v8.336c0 0.736 0.597 1.333 1.333 1.333s1.333-0.597 1.333-1.333v0-11.555c0-0.736-0.597-1.333-1.333-1.333v0h-11.555c-0.736 0-1.333 0.597-1.333 1.333v0zM2.667 26.667c-0.736 0-1.333 0.597-1.333 1.333s0.597 1.333 1.333 1.333v0h26.666c0.736 0 1.333-0.597 1.333-1.333s-0.597-1.333-1.333-1.333v0h-26.664z"></path>
</symbol>
<symbol id="icon-briefcase" viewBox="0 0 32 32">
<path fill="none"  stroke-linejoin="round" stroke-linecap="round" stroke-miterlimit="4" stroke-width="2.4" d="M29 19.147c-3.832 1.592-8.283 2.517-12.949 2.517-0.018 0-0.036 0-0.053-0h0.003c-4.597 0-8.986-0.894-13-2.518M21.778 8.666v-2.89c0-1.595-1.293-2.89-2.888-2.89h-5.779c-1.595 0-2.888 1.294-2.888 2.89v2.89M16 17.333h0.014M5.89 28.888h20.221c1.597 0 2.89-1.293 2.89-2.888v-14.445c0-1.595-1.293-2.888-2.89-2.888h-20.221c-1.597 0-2.89 1.293-2.89 2.888v14.445c0 1.595 1.293 2.888 2.89 2.888z"></path>
</symbol>
<symbol id="icon-menu" viewBox="0 0 32 32">
<path fill="none" stroke="#fff" style="stroke: var(--color3, #fff)" stroke-linejoin="round" stroke-linecap="round" stroke-miterlimit="4" stroke-width="2.6667" d="M5.333 8h21.333M5.333 16h21.333M5.333 24h21.333"></path>
</symbol>
</defs>
</svg>
