<svg aria-hidden="true" style="position: absolute; width: 0; height: 0; overflow: hidden;" version="1.1" xmlns="http://www.w3.org/2000/svg" xmlns:xlink="http://www.w3.org/1999/xlink">
<defs>
<symbol id="icon-fx-1" viewBox="0 0 32 32">
<path  stroke-linejoin="miter" stroke-linecap="butt" stroke-miterlimit="4" stroke-width="0.6154" d="M14.052 11.077h-3.488c-0.002-0-0.005-0-0.007-0-0.39 0-0.706 0.314-0.71 0.702v8.441c0 0.388 0.32 0.703 0.718 0.703 0.002 0 0.005 0 0.007 0 0.39 0 0.706-0.314 0.71-0.702v-3.597h2.494c0.002 0 0.005 0 0.007 0 0.39 0 0.707-0.314 0.71-0.704v-0c-0.004-0.389-0.32-0.703-0.71-0.703-0.003 0-0.005 0-0.008 0h-2.493v-2.734h2.77c0.002 0 0.005 0 0.007 0 0.39 0 0.707-0.315 0.71-0.705v-0c-0.005-0.389-0.321-0.702-0.71-0.702-0.003 0-0.005 0-0.008 0h0zM19.281 15.701l2.353-3.516c0.077-0.114 0.123-0.254 0.123-0.405 0-0.234-0.111-0.442-0.283-0.575l-0.002-0.001c-0.107-0.080-0.241-0.128-0.387-0.128-0.228 0-0.428 0.118-0.544 0.296l-0.002 0.003-2.078 3.104-2.075-3.103c-0.117-0.181-0.317-0.298-0.545-0.298-0.145 0-0.279 0.048-0.387 0.128l0.002-0.001c-0.174 0.134-0.285 0.342-0.285 0.577 0 0.15 0.046 0.29 0.124 0.406l-0.002-0.003 2.351 3.515-2.756 4.114c-0.077 0.114-0.123 0.254-0.123 0.405 0 0.234 0.111 0.442 0.283 0.575l0.002 0.001c0.117 0.086 0.252 0.128 0.385 0.128 0.209 0 0.416-0.103 0.546-0.298l2.479-3.703 2.476 3.702c0.116 0.182 0.316 0.301 0.544 0.301 0.146 0 0.281-0.049 0.389-0.131l-0.002 0.001c0.173-0.134 0.284-0.342 0.284-0.576 0-0.151-0.046-0.29-0.124-0.406l0.002 0.003-2.751-4.114z"></path>
<path  stroke-linejoin="miter" stroke-linecap="butt" stroke-miterlimit="4" stroke-width="0.3692" d="M26.779 7.034l0.084-0.165 0.018 0.010c0.714 0.358 1.579 0.794 2.070 1.642 0.485 0.838 0.431 1.799 0.388 2.591l-0.001 0.022c-0.030 0.516-0.052 0.959 0.036 1.284 0.079 0.298 0.311 0.655 0.587 1.073l0.012 0.017c0.443 0.674 0.981 1.49 0.981 2.492s-0.538 1.818-0.982 2.492l-0.011 0.017c-0.276 0.418-0.508 0.775-0.587 1.073l-0.178-0.047c-0.096 0.359-0.070 0.837-0.042 1.342 0.044 0.806 0.096 1.719-0.362 2.51-0.463 0.8-1.286 1.215-2.012 1.579v-17.932zM26.779 7.034l0.084-0.165c-0.457-0.229-0.847-0.427-1.076-0.656s-0.426-0.618-0.656-1.074l-0.009-0.018c-0.359-0.714-0.794-1.58-1.643-2.071v0c-0.838-0.485-1.799-0.431-2.592-0.388l-0.020 0.001c-0.517 0.030-0.96 0.052-1.284-0.036-0.299-0.079-0.656-0.311-1.074-0.587l-0.017-0.012c-0.674-0.442-1.49-0.981-2.492-0.981s-1.818 0.538-2.492 0.982l-0.017 0.011c-0.418 0.276-0.775 0.508-1.073 0.587l14.363 4.407zM11.134 2.662c0.516 0.030 0.959 0.052 1.284-0.036l-1.284 0.037zM11.134 2.662h-0.023c-0.791-0.046-1.751-0.098-2.59 0.386l2.613-0.386zM2.038 13.49c0.277-0.418 0.51-0.775 0.588-1.073 0.086-0.325 0.065-0.768 0.037-1.285l-0.002-0.021c-0.044-0.793-0.097-1.753 0.388-2.591l0.16 0.092-1.169 4.878zM2.038 13.49l-0.010 0.017c-0.444 0.674-0.982 1.49-0.982 2.492s0.538 1.818 0.982 2.492l0.011 0.017M2.039 13.49v5.019M2.039 18.51c0.276 0.418 0.508 0.775 0.587 1.073l-0.587-1.073zM2.662 20.866c0.030-0.516 0.052-0.959-0.036-1.284l0.037 1.284zM2.662 20.866v0.022c-0.046 0.791-0.098 1.753 0.386 2.591 0.491 0.849 1.356 1.284 2.070 1.642l0.018 0.010c0.457 0.229 0.847 0.427 1.076 0.656M2.662 20.866l3.551 4.921M6.213 25.787c0.229 0.229 0.426 0.618 0.656 1.074l0.009 0.018c0.359 0.714 0.794 1.58 1.643 2.071l0.092-0.16M6.213 25.788l2.4 3.003M8.613 28.791l-0.092 0.16c0.837 0.485 1.799 0.431 2.591 0.388l0.021-0.001-0.010-0.185-2.51-0.362zM27.522 19.089l-0.178-0.049c0.17-0.633 0.528-1.177 0.855-1.674l0.007-0.011c0.145-0.208 0.297-0.453 0.437-0.705l0.022-0.044c0.122-0.235 0.188-0.436 0.188-0.606s-0.066-0.369-0.188-0.606c-0.162-0.297-0.314-0.543-0.478-0.779l0.019 0.029-0.007-0.010c-0.329-0.498-0.686-1.042-0.855-1.674-0.175-0.656-0.138-1.321-0.103-1.932v-0.012c0.017-0.311 0.033-0.603 0.022-0.857-0.012-0.258-0.052-0.454-0.129-0.586-0.079-0.138-0.233-0.273-0.452-0.415-0.204-0.127-0.454-0.264-0.711-0.389l-0.052-0.023-0.012-0.006c-0.542-0.272-1.131-0.569-1.604-1.042v0c-0.473-0.473-0.769-1.063-1.042-1.605l-0.005-0.012c-0.148-0.308-0.286-0.558-0.435-0.799l0.022 0.038c-0.14-0.219-0.276-0.372-0.414-0.452-0.133-0.078-0.329-0.117-0.586-0.129-0.060-0.001-0.131-0.002-0.202-0.002-0.231 0-0.46 0.009-0.686 0.026l0.030-0.002h-0.010c-0.612 0.034-1.278 0.071-1.934-0.103-0.634-0.17-1.178-0.528-1.675-0.855l-0.011-0.007c-0.208-0.145-0.453-0.297-0.705-0.437l-0.044-0.022c-0.235-0.122-0.436-0.188-0.606-0.188s-0.369 0.066-0.606 0.188c-0.234 0.121-0.482 0.283-0.75 0.459l-0.012 0.007c-0.497 0.329-1.040 0.686-1.674 0.855-0.655 0.175-1.319 0.138-1.929 0.103h-0.015c-0.197-0.016-0.426-0.024-0.657-0.024-0.071 0-0.141 0.001-0.212 0.003l0.010-0c-0.258 0.012-0.454 0.052-0.586 0.129l17.951 14.223zM27.522 19.089l-0.178-0.049c-0.175 0.656-0.138 1.321-0.103 1.932v0.012c0.017 0.311 0.033 0.603 0.022 0.858-0.012 0.258-0.053 0.453-0.129 0.586-0.080 0.138-0.233 0.273-0.452 0.414-0.204 0.128-0.454 0.265-0.711 0.391l-0.052 0.023 0.082 0.165M27.522 19.088l-1.52 4.332M26.002 23.42l-0.084-0.165-0.012 0.005c-0.542 0.272-1.131 0.569-1.604 1.042M26.001 23.42l-1.698 0.882M24.303 24.303c-0.474 0.474-0.77 1.063-1.042 1.605l-0.006 0.012c-0.148 0.308-0.285 0.558-0.434 0.8l0.022-0.038c-0.142 0.219-0.277 0.373-0.415 0.452-0.132 0.078-0.327 0.117-0.586 0.129-0.060 0.001-0.13 0.002-0.201 0.002-0.231 0-0.46-0.009-0.687-0.026l0.030 0.002h-0.012c-0.61-0.034-1.275-0.071-1.93 0.103-0.634 0.17-1.177 0.527-1.674 0.855l-0.012 0.007M24.303 24.303l-6.949 3.904M17.354 28.207c-0.208 0.145-0.453 0.297-0.705 0.437l-0.044 0.022c-0.236 0.122-0.436 0.188-0.606 0.188s-0.369-0.066-0.606-0.188c-0.297-0.162-0.543-0.314-0.779-0.478l0.029 0.019-0.010-0.007c-0.498-0.327-1.041-0.686-1.674-0.855h-0.001M17.354 28.206l-4.396-0.862M12.958 27.344c-0.323-0.084-0.693-0.132-1.075-0.132-0.027 0-0.054 0-0.081 0.001l0.004-0c-0.268 0-0.534 0.015-0.79 0.028-0.313 0.017-0.603 0.033-0.859 0.022-0.258-0.012-0.453-0.053-0.586-0.129v0c-0.138-0.079-0.273-0.233-0.414-0.452-0.128-0.204-0.265-0.454-0.391-0.711l-0.023-0.052-0.005-0.011c-0.272-0.542-0.569-1.132-1.042-1.605l-0.13 0.13M12.958 27.344l-5.392-2.911M7.566 24.433l0.13-0.13c-0.473-0.474-1.063-0.77-1.605-1.042l-0.012-0.006c-0.308-0.148-0.558-0.285-0.8-0.434l0.038 0.022c-0.219-0.142-0.373-0.277-0.452-0.415-0.078-0.132-0.117-0.327-0.129-0.586-0.012-0.255 0.005-0.545 0.022-0.858v-0.012c0.034-0.61 0.071-1.275-0.103-1.93l-0.178 0.047M7.566 24.433l-3.089-5.345M4.476 19.088l0.178-0.047c-0.17-0.633-0.527-1.177-0.855-1.674l-0.007-0.012c-0.145-0.208-0.297-0.453-0.437-0.705l-0.022-0.044c-0.122-0.236-0.188-0.436-0.188-0.606s0.066-0.369 0.188-0.606c0.121-0.234 0.283-0.482 0.459-0.751l0.007-0.010c0.327-0.498 0.686-1.041 0.855-1.674M4.476 19.089l0.178-6.129M4.655 12.96c0.175-0.657 0.138-1.321 0.103-1.932v-0.012M4.655 12.96l0.103-1.945M4.758 11.015c-0.016-0.197-0.024-0.425-0.024-0.657 0-0.071 0.001-0.141 0.003-0.212l-0 0.010M4.758 11.015l-0.022-0.858M4.865 9.572c0.080-0.138 0.233-0.273 0.453-0.414 0.217-0.139 0.48-0.271 0.762-0.414l0.012-0.005c0.542-0.272 1.131-0.569 1.604-1.042 0.474-0.473 0.77-1.063 1.042-1.605l0.006-0.012c0.142-0.281 0.273-0.544 0.412-0.762 0.142-0.219 0.277-0.373 0.415-0.452l-4.705 4.705zM4.865 9.572c-0.076 0.133-0.117 0.329-0.129 0.586M4.865 9.572l-0.129 0.586M7.031 26.778c-0.224-0.446-0.434-0.866-0.689-1.12l0.689 1.12z"></path>
</symbol>
</defs>
</svg>
