<svg width="64" height="26" fill="none" xmlns="http://www.w3.org/2000/svg"><path d="M2 18.857H0V26h64V1h-4l-2 5.357h-2l-2 5.357h-6l-2-7.143-2 7.143s-1.333 4.464-2 4.464l-2-.892-2 .893-2-4.465h-2l-2-7.143h-4l-2 7.143h-2L22 7.25h-2l-2 4.464-2 7.143h-4l-2-7.143H4l-2 7.143Z" fill="url(#a)" fill-opacity=".3"/><path fill-rule="evenodd" clip-rule="evenodd" d="M59.46.33H64v1.34h-3.46l-2 5.357h-2l-2 5.357h-7.126L46 7.332l-1.275 4.555-.71-.17.71.17-.005.014-.011.039-.045.144a41.45 41.45 0 0 1-.703 2.074c-.21.565-.45 1.152-.688 1.606a3.678 3.678 0 0 1-.39.619 1.47 1.47 0 0 1-.286.271c-.114.08-.32.194-.597.194h-.177L40 16.034l-2.394 1.069-2.114-4.72h-2.078l-2-7.142h-2.828l-2 7.143h-3.094l-2-4.464h-.984l-1.793 4-2.13 7.607h-5.17l-2-7.143h-4.83l-2 7.143H0v-1.34h1.414l2-7.142h7.172l2 7.143h2.828l1.87-6.68 2.208-4.928h3.016l2 4.465h.906l2-7.143h5.172l2 7.143h1.922l1.886 4.21L40 14.536l1.829.816c.026-.046.055-.098.085-.155.2-.383.419-.912.624-1.463a36.923 36.923 0 0 0 .723-2.146l.01-.036.004-.009 1.997-7.135h1.456l1.858 6.636h4.873l2-5.358h2l2-5.357Z" fill="#045DE9"/><defs><linearGradient id="a" x1="32" y1=".33" x2="32" y2="26" gradientUnits="userSpaceOnUse"><stop stop-color="#045DE9"/><stop offset="1" stop-color="#045DE9" stop-opacity="0"/></linearGradient></defs></svg>