<svg width="64" height="25" fill="none" xmlns="http://www.w3.org/2000/svg"><path d="M2 18.143H0V25h64V1h-4l-2 5.143h-2l-2 5.143h-6l-2-6.857-2 6.857s-1.333 4.286-2 4.286l-2-.858-2 .857-2-4.285h-2l-2-6.857h-4l-2 6.857h-2L22 7h-2l-2 4.286-2 6.857h-4l-2-6.857H4l-2 6.857Z" fill="url(#a)" fill-opacity=".3"/><path fill-rule="evenodd" clip-rule="evenodd" d="M59.46.357H64v1.286h-3.46l-2 5.143h-2l-2 5.143h-7.126L46 7.079l-1.275 4.372-.71-.162.71.162v.002l-.005.012-.011.037-.045.139a39.22 39.22 0 0 1-.703 1.99c-.21.543-.45 1.107-.688 1.543a3.521 3.521 0 0 1-.39.594c-.072.083-.166.179-.286.26-.114.077-.32.186-.597.186h-.177L40 15.434l-2.394 1.025-2.114-4.53h-2.078l-2-6.858h-2.828l-2 6.858h-3.094l-2-4.286h-.984l-1.793 3.841-2.13 7.302h-5.17l-2-6.857h-4.83l-2 6.857H0V17.5h1.414l2-6.857h7.172l2 6.857h2.828l1.87-6.412 2.208-4.73h3.016l2 4.285h.906l2-6.857h5.172l2 6.857h1.922l1.886 4.041L40 13.996l1.829.783c.026-.044.055-.094.085-.149.2-.368.419-.875.624-1.405a34.55 34.55 0 0 0 .723-2.06l.01-.034.004-.008 1.997-6.85h1.456l1.858 6.37h4.873l2-5.143h2l2-5.143Z" fill="#045DE9"/><defs><linearGradient id="a" x1="32" y1=".357" x2="32" y2="25" gradientUnits="userSpaceOnUse"><stop stop-color="#045DE9"/><stop offset="1" stop-color="#045DE9" stop-opacity="0"/></linearGradient></defs></svg>