<svg width="25" height="24" fill="none" xmlns="http://www.w3.org/2000/svg"><path d="M12.75 17.333H18l-1.475-1.498a2.185 2.185 0 0 1-.625-1.533v-3.369c0-2.786-1.753-5.157-4.2-6.035v-.365c0-1.178-.94-2.133-2.1-2.133-1.16 0-2.1.955-2.1 2.133v.365c-2.447.878-4.2 3.249-4.2 6.035v3.37c0 .574-.225 1.125-.625 1.532L1.2 17.333h5.25m6.3 0V18.4c0 1.767-1.41 3.2-3.15 3.2s-3.15-1.433-3.15-3.2v-1.067m6.3 0h-6.3" stroke="#454545" stroke-width="1.6" stroke-linecap="round" stroke-linejoin="round"/><path d="M21.728 18.043a5.152 5.152 0 1 1-7.285-7.285 5.152 5.152 0 0 1 7.285 7.285Z" fill="#fff"/><path d="M15.9 14.4h2.186m0 0h2.185m-2.185 0v-2.186m0 2.186v2.186m3.642 1.457a5.152 5.152 0 1 1-7.285-7.285 5.152 5.152 0 0 1 7.285 7.285Z" stroke="#454545" stroke-width="1.6" stroke-linecap="round" stroke-linejoin="round"/><path d="M.484 4.442a.8.8 0 0 0 1.431.716l-1.43-.716Zm3.474-1.326a.8.8 0 0 0-.716-1.432l.716 1.432ZM1.915 5.158c.276-.552.53-.922.826-1.217.295-.295.665-.55 1.217-.825l-.716-1.432c-.648.325-1.178.67-1.633 1.125-.455.455-.8.985-1.125 1.633l1.431.716ZM18.715 4.442a.8.8 0 1 1-1.43.716l1.43-.716Zm-3.473-1.326a.8.8 0 1 1 .716-1.432l-.716 1.432Zm2.043 2.042c-.276-.552-.53-.922-.826-1.217-.295-.295-.665-.55-1.217-.825l.716-1.432c.648.325 1.178.67 1.633 1.125.455.455.8.985 1.124 1.633l-1.43.716Z" fill="#454545"/></svg>