<svg width="30" height="30" fill="none" xmlns="http://www.w3.org/2000/svg"><path d="m7.569 12.272.786-1.572 3.514 1.757-.786 1.572-3.514-1.757ZM18.112 12.455l3.514-1.757.786 1.571-3.514 1.757-.786-1.571ZM18.258 22.289c-.098-.099-.887-.845-2.379-1.072v-1.822h.879v-1.758h-3.516v1.758h.88v1.823c-1.492.226-2.282.972-2.38 1.07l1.243 1.244-.01.01c.027-.026.69-.632 2.025-.632s1.998.606 2.025.631l-.01-.01 1.243-1.242Z" fill="#FF4B55"/><path d="M24.668 1.816a5.261 5.261 0 0 0-4.709 2.902c-.545-.178-1.04-.265-1.443-.265-.965 0-1.652.293-2.204.528-.46.196-.825.351-1.312.351-.487 0-.851-.155-1.312-.351-.552-.235-1.239-.528-2.204-.528-.403 0-.898.087-1.443.265a5.261 5.261 0 0 0-4.709-2.902C2.407 1.816 0 4.186 0 7.09c0 2.194 1.401 4.165 3.483 4.94-.477 1.525-.788 3.375-.788 5.607 0 6.819 5.542 10.547 12.305 10.547 6.764 0 12.305-3.729 12.305-10.547 0-2.232-.311-4.082-.788-5.607C28.598 11.256 30 9.285 30 7.09c0-2.902-2.404-5.274-5.332-5.274ZM1.758 7.09c0-1.939 1.603-3.516 3.574-3.516 1.313 0 2.508.744 3.108 1.873-1.965 1.146-3.397 2.896-4.33 4.941-1.378-.504-2.352-1.823-2.352-3.298Zm8.848 14.941v-1.758A4.4 4.4 0 0 1 15 15.88a4.4 4.4 0 0 1 4.395 4.394v1.758A4.4 4.4 0 0 1 15 26.426a4.4 4.4 0 0 1-4.395-4.395Zm9.454 3.495a6.117 6.117 0 0 0 1.092-3.495v-1.758A6.16 6.16 0 0 0 15 14.121a6.16 6.16 0 0 0-6.152 6.152v1.758c0 1.297.404 2.502 1.092 3.495-3.05-1.187-5.487-3.64-5.487-7.89 0-9.439 5.875-11.425 7.031-11.425.607 0 1.028.18 1.515.387.541.23 1.155.492 2.001.492.846 0 1.46-.261 2-.492.488-.208.91-.387 1.516-.387 1.156 0 7.03 1.986 7.03 11.426 0 4.249-2.437 6.702-5.486 7.89Zm5.83-15.138c-.934-2.045-2.365-3.795-4.33-4.941a3.539 3.539 0 0 1 3.108-1.873c1.97 0 3.574 1.577 3.574 3.516 0 1.475-.974 2.794-2.351 3.298Z" fill="#FF4B55"/></svg>