<svg width="32" height="32" fill="none" xmlns="http://www.w3.org/2000/svg"><path d="m32 5.272-.001-3.804L30.23 4.84c-.017.033-1.738 3.246-4.856 3.246-3.608 0-3.678-.938-5.625-.938-1.03 0-1.762.312-2.35.563-.492.21-.88.375-1.4.375-.52 0-.908-.166-1.4-.375-.588-.25-1.32-.563-2.35-.563-1.926 0-2.044.938-5.625.938-3.118 0-4.839-3.213-4.855-3.243L0 1.415v3.857c0 4.992 2.505 7.53 4.788 8.805-1.675.701-2.913 2.353-2.913 4.32v.938h4.75a4.69 4.69 0 0 0 1.525-.254c.03.548.121 1.096.278 1.633.473 1.623 1.489 2.975 2.884 3.852v3.206a2.816 2.816 0 0 0 2.813 2.813h3.75a2.816 2.816 0 0 0 2.813-2.813v-3.206c1.394-.874 2.41-2.227 2.884-3.852a7.173 7.173 0 0 0 .278-1.633c.485.166.999.254 1.525.254h4.688v-.938a4.695 4.695 0 0 0-2.859-4.315C29.49 12.806 32 10.268 32 5.271ZM2.322 8.362c1.056.861 2.489 1.598 4.303 1.598 1.56 0 2.57-.153 3.313-.346a4.512 4.512 0 0 1-.074 4.065c-.778-.07-2.327-.303-3.845-1.07-1.85-.935-3.086-2.357-3.697-4.247Zm1.599 9.098a2.92 2.92 0 0 1 2.704-1.876h2.234a7.239 7.239 0 0 0-.468 1.252 2.795 2.795 0 0 1-1.766.624H3.921Zm13.954 11.25h-3.75a.939.939 0 0 1-.938-.938v-3.171A7.166 7.166 0 0 1 16 24.022a7.17 7.17 0 0 1 2.813.578v3.172c0 .517-.421.938-.938.938Zm1.85-5.755a8.998 8.998 0 0 0-7.45 0c-2.115-1.359-2.883-4.245-1.698-6.616.822-1.715 1.68-2.65 1.68-4.767 0-.87-.176-1.72-.511-2.509.153-.026.314-.04.504-.04.646 0 1.096.19 1.616.412.577.246 1.231.525 2.134.525.903 0 1.557-.279 2.134-.525.52-.221.97-.413 1.616-.413.19 0 .35.015.504.041a6.396 6.396 0 0 0-.51 2.51c0 2.116.857 3.051 1.679 4.766 1.186 2.372.416 5.26-1.698 6.616Zm8.302-5.495h-2.652c-.649 0-1.267-.22-1.766-.624a7.214 7.214 0 0 0-.468-1.251h2.234c1.222 0 2.265.783 2.652 1.875Zm-2.046-4.851c-1.519.767-3.068 1-3.845 1.07a4.512 4.512 0 0 1-.074-4.065c.742.193 1.753.346 3.313.346 1.814 0 3.247-.737 4.303-1.598-.612 1.89-1.848 3.312-3.697 4.247Z" fill="#045DE9"/><path d="m11.584 17.185 1.326-1.326 1.874 1.875-1.325 1.326-1.875-1.875ZM17.208 17.734l1.875-1.874 1.326 1.325-1.875 1.875-1.326-1.326Z" fill="#045DE9"/></svg>