<svg width="24" height="24" fill="none" xmlns="http://www.w3.org/2000/svg"><path opacity=".5" fill-rule="evenodd" clip-rule="evenodd" d="M17.366 6.097a.85.85 0 0 1 .537 1.074l-1.679 5.038c-.6 1.798-2.88 2.336-4.22.996l-1.21-1.209a.85.85 0 0 0-1.406.332l-1.68 5.038a.85.85 0 0 1-1.611-.537l1.68-5.038c.598-1.798 2.88-2.336 4.22-.996l1.208 1.209a.85.85 0 0 0 1.407-.332l1.68-5.038a.85.85 0 0 1 1.074-.537Z" fill="#045DE9" stroke="#fff" stroke-width=".4" stroke-linecap="round" stroke-linejoin="round"/></svg>