<svg width="16" height="16" fill="none" xmlns="http://www.w3.org/2000/svg"><path d="M14 8A6 6 0 1 1 2 8a6 6 0 0 1 12 0Z" stroke="#454545" stroke-width="1.3"/><path d="M7.249 9.46h1.345v-.121c.008-.693.256-1.016.817-1.353.664-.394 1.098-.916 1.098-1.75 0-1.244-1.002-1.968-2.412-1.968-1.289 0-2.34.674-2.372 2.095h1.449c.021-.579.451-.888.916-.888.48 0 .867.32.867.813 0 .466-.338.775-.775 1.051-.596.377-.93.757-.933 2v.12Zm.7 2.272c.454 0 .848-.38.851-.852a.863.863 0 0 0-.852-.845.849.849 0 1 0 0 1.697Z" fill="#454545"/></svg>