<svg width="14" height="14" fill="none" xmlns="http://www.w3.org/2000/svg"><path d="M11.388 12.237a.6.6 0 1 0 .849-.849l-.849.849ZM8.862 8.013a.6.6 0 1 0-.849.849l.849-.849Zm-1.55-1.788a.6.6 0 0 0 0-1.2v1.2Zm-3.375-1.2a.6.6 0 0 0 0 1.2v-1.2Zm5.025.6a3.338 3.338 0 0 1-3.337 3.338v1.2a4.537 4.537 0 0 0 4.537-4.538h-1.2ZM5.625 8.963a3.338 3.338 0 0 1-3.338-3.338h-1.2a4.538 4.538 0 0 0 4.538 4.537v-1.2ZM2.287 5.625a3.338 3.338 0 0 1 3.338-3.337v-1.2a4.538 4.538 0 0 0-4.538 4.537h1.2Zm3.338-3.337a3.338 3.338 0 0 1 3.337 3.337h1.2a4.537 4.537 0 0 0-4.537-4.537v1.2Zm6.612 9.1L8.862 8.013l-.849.849 3.375 3.375.849-.849ZM7.312 5.025H3.937v1.2h3.375v-1.2Z" fill="#5C5D5D"/></svg>