<svg width="24" height="24" fill="none" xmlns="http://www.w3.org/2000/svg"><path d="M12.655 5.345a.793.793 0 0 0-1.31 0L7.132 11.57a.765.765 0 0 0 0 .86l4.213 6.225c.312.46.998.46 1.31 0l4.213-6.225a.765.765 0 0 0 0-.86l-4.213-6.225ZM12 16.828l-2.505-3.701 2.35.463c.102.02.207.02.31 0l2.35-.463L12 16.828Zm0-4.788-2.907-.573L12 7.172l2.907 4.295L12 12.04Z" fill="#A2A2A2" stroke="#A2A2A2" stroke-width=".3"/><path d="M.85 12.036v.006c.56 14.765 21.742 14.76 22.3 0v-.006C23.15 5.888 18.148.886 12 .886 5.852.886.85 5.888.85 12.036ZM12 21.596c-5.27 0-9.56-4.287-9.56-9.557.483-12.67 18.64-12.666 19.12 0 0 5.27-4.29 9.558-9.56 9.558Z" fill="#A2A2A2" stroke="#A2A2A2" stroke-width=".3"/></svg>