<svg width="26" height="26" fill="none" xmlns="http://www.w3.org/2000/svg"><path d="M11.417 9H8.583A.577.577 0 0 0 8 9.571v6.858c0 .315.26.571.583.571a.577.577 0 0 0 .583-.571v-2.922h2.026a.577.577 0 0 0 .583-.572.577.577 0 0 0-.583-.571H9.166v-2.221h2.251A.577.577 0 0 0 12 9.57.577.577 0 0 0 11.417 9ZM15.666 12.757 17.578 9.9a.59.59 0 0 0-.131-.797.526.526 0 0 0-.757.138l-1.688 2.522-1.686-2.521a.526.526 0 0 0-.756-.139.59.59 0 0 0-.132.796l1.91 2.856-2.239 3.343a.59.59 0 0 0 .131.797c.095.07.205.104.313.104.17 0 .338-.084.444-.242l2.014-3.009 2.012 3.008a.522.522 0 0 0 .757.139.59.59 0 0 0 .131-.796l-2.235-3.343Z" fill="#A2A2A2" stroke="#A2A2A2" stroke-width=".5"/><path d="m21.758 5.715.068-.134.015.008c.58.291 1.283.645 1.682 1.334.394.681.35 1.462.315 2.105l-.001.018-.15-.009.15.009c-.024.419-.042.779.029 1.043.064.242.253.532.477.872l.01.014c.36.548.797 1.211.797 2.025 0 .814-.437 1.477-.798 2.025l-.009.014c-.224.34-.413.63-.477.872l-.145-.038c-.078.292-.057.68-.034 1.09.036.655.078 1.397-.294 2.039-.376.65-1.045.987-1.635 1.283V5.715Zm0 0 .068-.134c-.371-.186-.688-.347-.874-.533-.186-.186-.346-.502-.533-.873l-.007-.015c-.292-.58-.645-1.284-1.335-1.683l-.075.13.075-.13c-.681-.394-1.462-.35-2.106-.315l-.016.001c-.42.024-.78.042-1.043-.029-.243-.064-.533-.253-.873-.477l-.014-.01C14.477 1.288 13.814.85 13 .85c-.814 0-1.477.437-2.025.798l-.014.009c-.34.224-.63.413-.872.477l11.67 3.581ZM9.046 2.163c.419.024.779.042 1.043-.029l-1.043.03Zm0 0h-.019c-.643-.037-1.423-.08-2.104.314l2.123-.314Zm-7.39 8.798c.225-.34.414-.63.478-.872.07-.264.053-.624.03-1.044l-.002-.017c-.036-.644-.079-1.424.315-2.105l.13.075-.95 3.963Zm0 0-.008.014C1.287 11.523.85 12.186.85 13c0 .814.437 1.477.798 2.025l.009.014m0-4.078v4.078m0 0c.224.34.413.63.477.872l-.477-.872Zm.506 1.915c.024-.419.042-.779-.029-1.043l.03 1.043Zm0 0v.018c-.037.643-.08 1.424.314 2.105.399.69 1.102 1.043 1.682 1.334l.015.008c.371.186.688.347.874.533m-2.885-3.998 2.885 3.998m0 0c.186.186.346.502.533.873l.007.015c.292.58.645 1.284 1.335 1.683l.075-.13m-1.95-2.44 1.95 2.44m0 0-.075.13c.68.394 1.462.35 2.105.315l.017-.001-.008-.15-2.039-.294Zm15.364-7.883-.145-.04c.138-.514.429-.956.695-1.36l.006-.009a6.99 6.99 0 0 0 .373-.609c.099-.191.153-.354.153-.492s-.054-.3-.153-.492a6.992 6.992 0 0 0-.373-.61l-.006-.008c-.267-.405-.557-.847-.695-1.36-.142-.533-.112-1.073-.084-1.57v-.01c.014-.253.027-.49.018-.696-.01-.21-.042-.369-.105-.476-.064-.112-.189-.222-.367-.337a7.11 7.11 0 0 0-.62-.335l-.01-.005c-.44-.221-.919-.462-1.303-.847l.106-.106-.106.106c-.384-.384-.625-.864-.847-1.304l-.004-.01a7.088 7.088 0 0 0-.336-.619c-.114-.178-.224-.302-.336-.367-.108-.063-.267-.095-.476-.105a7.16 7.16 0 0 0-.697.018h-.008c-.497.028-1.038.058-1.571-.084-.515-.138-.957-.429-1.361-.695l-.009-.006a6.977 6.977 0 0 0-.609-.373c-.191-.099-.354-.153-.492-.153s-.3.054-.492.153c-.19.098-.392.23-.609.373l-.01.006c-.404.267-.845.557-1.36.695-.532.142-1.072.112-1.567.084H8.95a7.176 7.176 0 0 0-.697-.018c-.21.01-.369.042-.476.105L22.362 15.51Zm0 0-.145-.04c-.142.533-.112 1.073-.084 1.57v.01c.014.253.027.49.018.697-.01.21-.043.368-.105.476-.065.112-.189.222-.367.336a7.09 7.09 0 0 1-.62.336l.067.134m1.236-3.52-1.235 3.52m0 0-.068-.134-.01.004c-.44.221-.919.462-1.303.847m1.38-.717-1.38.717m0 0c-.385.385-.626.864-.847 1.304l-.005.01a7.1 7.1 0 0 1-.335.619c-.115.178-.225.303-.337.367-.107.063-.266.095-.476.105a7.178 7.178 0 0 1-.697-.018l-.008.15.008-.15h-.01c-.496-.028-1.036-.058-1.568.084-.515.138-.956.428-1.36.695l-.01.006m5.645-3.172L14.1 22.918m0 0a7.006 7.006 0 0 1-.609.373c-.192.099-.354.153-.492.153s-.3-.054-.492-.153a6.99 6.99 0 0 1-.61-.373l-.008-.006c-.405-.266-.846-.557-1.36-.695h-.001m3.572.7-3.572-.7m0 0a3.6 3.6 0 0 0-.936-.107c-.218 0-.434.012-.642.023-.254.014-.49.027-.698.018-.21-.01-.368-.043-.476-.105l-.075.13.075-.13c-.112-.064-.222-.189-.336-.367a7.089 7.089 0 0 1-.336-.62l-.134.067.134-.067-.004-.009c-.221-.44-.462-.92-.847-1.304l-.106.106m4.381 2.365-4.381-2.365m0 0 .106-.106c-.384-.385-.864-.626-1.304-.847l-.01-.005a7.092 7.092 0 0 1-.619-.335c-.178-.115-.303-.225-.367-.337-.063-.107-.095-.266-.105-.476-.01-.207.004-.443.018-.697v-.01c.028-.496.058-1.036-.084-1.568l-.145.038m2.51 4.343-2.51-4.343m0 0 .145-.038c-.138-.514-.428-.956-.695-1.36l-.006-.01a6.976 6.976 0 0 1-.373-.609c-.099-.192-.153-.354-.153-.492s.054-.3.153-.492c.098-.19.23-.392.373-.61l.006-.008c.266-.405.557-.846.695-1.36m-.145 4.98.145-4.98m0 0c.142-.534.112-1.073.084-1.57v-.01m-.084 1.58.084-1.58m0 0a7.172 7.172 0 0 1-.018-.697m.018.697-.018-.697m.105-.476c.065-.112.189-.222.368-.336.176-.113.39-.22.619-.336l.01-.004c.44-.221.919-.462 1.303-.847.385-.384.626-.864.847-1.304l.005-.01c.115-.228.222-.442.335-.619.115-.178.225-.303.337-.367L3.954 7.777Zm0 0c-.062.108-.095.267-.105.476m.105-.476-.105.476m1.865 13.504c-.182-.362-.353-.704-.56-.91l.56.91Zm0 0Z" fill="#A2A2A2" stroke="#A2A2A2" stroke-width=".3"/></svg>