<svg width="24" height="24" fill="none" xmlns="http://www.w3.org/2000/svg"><path d="M15.48 12.09a1.19 1.19 0 1 0 0-2.382 1.19 1.19 0 0 0 0 2.381Z" fill="#A2A2A2"/><path d="m10.36 20.935-4.772-4.772a1.588 1.588 0 0 1 0-2.245l7.084-7.085a1.588 1.588 0 0 1 1.192-.463l4.36.19a1.588 1.588 0 0 1 1.514 1.454l.384 4.609c.04.465-.129.924-.46 1.254l-7.057 7.058c-.62.62-1.625.62-2.245 0Z" stroke="#A2A2A2" stroke-width="2" stroke-linecap="round"/><path d="m5.026 13.357-.56-.562a1.588 1.588 0 0 1 0-2.245l7.084-7.085a1.588 1.588 0 0 1 1.191-.463l4.361.19a1.588 1.588 0 0 1 1.514 1.454l.112 1.345" stroke="#A2A2A2" stroke-width="2" stroke-linecap="round"/></svg>