<svg width="20" height="20" fill="none" xmlns="http://www.w3.org/2000/svg"><g clip-path="url(#a)"><path d="M9.049 2.671c.3-.921 1.603-.921 1.902 0l1.294 3.983a1 1 0 0 0 .951.691h4.188c.969 0 1.372 1.24.588 1.81l-3.388 2.461a1 1 0 0 0-.363 1.118l1.294 3.983c.3.921-.755 1.687-1.539 1.118l-3.388-2.462a1 1 0 0 0-1.176 0l-3.388 2.462c-.784.57-1.838-.197-1.539-1.118l1.294-3.983a1 1 0 0 0-.363-1.118L2.028 9.154c-.784-.57-.381-1.809.588-1.809h4.188a1 1 0 0 0 .95-.69L9.05 2.67Z" stroke="#A2A2A2" stroke-width="1.8"/></g><defs><clipPath id="a"><path fill="#fff" d="M0 0h20v20H0z"/></clipPath></defs></svg>